<mxfile host="app.diagrams.net" agent="Mozilla/5.0 (Windows NT 10.0; Win64; x64) AppleWebKit/537.36 (KHTML, like Gecko) Chrome/128.0.0.0 Safari/537.36" version="24.7.13">
  <diagram name="1 oldal" id="BLjI9-uibKwgVw5CY6Xl">
    <mxGraphModel dx="1674" dy="780" grid="1" gridSize="10" guides="1" tooltips="1" connect="1" arrows="1" fold="1" page="1" pageScale="1" pageWidth="827" pageHeight="1169" math="0" shadow="0">
      <root>
        <mxCell id="0" />
        <mxCell id="1" parent="0" />
        <mxCell id="vAQzXtembfjDkwKoBCy3-8" style="edgeStyle=orthogonalEdgeStyle;rounded=0;orthogonalLoop=1;jettySize=auto;html=1;entryX=0;entryY=0.5;entryDx=0;entryDy=0;" edge="1" parent="1" source="vAQzXtembfjDkwKoBCy3-4" target="vAQzXtembfjDkwKoBCy3-7">
          <mxGeometry relative="1" as="geometry" />
        </mxCell>
        <mxCell id="vAQzXtembfjDkwKoBCy3-4" value="START" style="ellipse;whiteSpace=wrap;html=1;" vertex="1" parent="1">
          <mxGeometry x="40" y="40" width="120" height="80" as="geometry" />
        </mxCell>
        <mxCell id="vAQzXtembfjDkwKoBCy3-12" style="edgeStyle=orthogonalEdgeStyle;rounded=0;orthogonalLoop=1;jettySize=auto;html=1;exitX=0.5;exitY=1;exitDx=0;exitDy=0;entryX=0.5;entryY=0;entryDx=0;entryDy=0;" edge="1" parent="1" source="vAQzXtembfjDkwKoBCy3-5" target="vAQzXtembfjDkwKoBCy3-11">
          <mxGeometry relative="1" as="geometry" />
        </mxCell>
        <mxCell id="vAQzXtembfjDkwKoBCy3-5" value="a := 0&lt;div&gt;d := 0&lt;/div&gt;&lt;div&gt;e := 0&lt;/div&gt;" style="rounded=0;whiteSpace=wrap;html=1;" vertex="1" parent="1">
          <mxGeometry x="350" y="50" width="120" height="60" as="geometry" />
        </mxCell>
        <mxCell id="vAQzXtembfjDkwKoBCy3-9" style="edgeStyle=orthogonalEdgeStyle;rounded=0;orthogonalLoop=1;jettySize=auto;html=1;entryX=0;entryY=0.5;entryDx=0;entryDy=0;" edge="1" parent="1" source="vAQzXtembfjDkwKoBCy3-7" target="vAQzXtembfjDkwKoBCy3-5">
          <mxGeometry relative="1" as="geometry" />
        </mxCell>
        <mxCell id="vAQzXtembfjDkwKoBCy3-7" value="Be. N, X, A, B, C" style="shape=parallelogram;perimeter=parallelogramPerimeter;whiteSpace=wrap;html=1;fixedSize=1;" vertex="1" parent="1">
          <mxGeometry x="190" y="50" width="120" height="60" as="geometry" />
        </mxCell>
        <mxCell id="vAQzXtembfjDkwKoBCy3-14" style="edgeStyle=orthogonalEdgeStyle;rounded=0;orthogonalLoop=1;jettySize=auto;html=1;entryX=0.5;entryY=0;entryDx=0;entryDy=0;" edge="1" parent="1" source="vAQzXtembfjDkwKoBCy3-11" target="vAQzXtembfjDkwKoBCy3-13">
          <mxGeometry relative="1" as="geometry" />
        </mxCell>
        <mxCell id="vAQzXtembfjDkwKoBCy3-11" value="i := 2" style="rounded=0;whiteSpace=wrap;html=1;" vertex="1" parent="1">
          <mxGeometry x="350" y="140" width="120" height="60" as="geometry" />
        </mxCell>
        <mxCell id="vAQzXtembfjDkwKoBCy3-16" style="edgeStyle=orthogonalEdgeStyle;rounded=0;orthogonalLoop=1;jettySize=auto;html=1;entryX=1;entryY=0.5;entryDx=0;entryDy=0;" edge="1" parent="1" source="vAQzXtembfjDkwKoBCy3-13" target="vAQzXtembfjDkwKoBCy3-15">
          <mxGeometry relative="1" as="geometry" />
        </mxCell>
        <mxCell id="vAQzXtembfjDkwKoBCy3-17" value="h" style="edgeLabel;html=1;align=center;verticalAlign=middle;resizable=0;points=[];" vertex="1" connectable="0" parent="vAQzXtembfjDkwKoBCy3-16">
          <mxGeometry x="0.2667" y="1" relative="1" as="geometry">
            <mxPoint as="offset" />
          </mxGeometry>
        </mxCell>
        <mxCell id="vAQzXtembfjDkwKoBCy3-13" value="i &amp;lt; N" style="rhombus;whiteSpace=wrap;html=1;" vertex="1" parent="1">
          <mxGeometry x="370" y="240" width="80" height="80" as="geometry" />
        </mxCell>
        <mxCell id="vAQzXtembfjDkwKoBCy3-15" value="END" style="ellipse;whiteSpace=wrap;html=1;" vertex="1" parent="1">
          <mxGeometry x="160" y="240" width="120" height="80" as="geometry" />
        </mxCell>
        <mxCell id="vAQzXtembfjDkwKoBCy3-18" value="" style="rhombus;whiteSpace=wrap;html=1;" vertex="1" parent="1">
          <mxGeometry x="370" y="360" width="80" height="80" as="geometry" />
        </mxCell>
      </root>
    </mxGraphModel>
  </diagram>
</mxfile>
